# xmcd
#
# Track frame offsets: 
#        150
#        13426
#        31798
#        51350
#        80390
#        97382
#        115648
#        137478
#        154234
#        169472
#        188570
#        209755
#
# Disc length: 3006 seconds
#
# Revision: 0
# Processed by: cddbd v1.5.2PL0 Copyright (c) Steve Scherf et al.
# Submitted via: ExactAudioCopy v1.0b1
#
DISCID=a80bbc0c
DTITLE=Margus Vaher - Lähedal
DYEAR=2011
DGENRE=
TTITLE0=Meeletu
TTITLE1=Naer
TTITLE2=Lähedal
TTITLE3=Mõtisklus
TTITLE4=Kes sind on näinud
TTITLE5=Leib jahtub
TTITLE6=Ma kuulan
TTITLE7=Oma saar
TTITLE8=Mu kodu
TTITLE9=Ajavoogude sees
TTITLE10=Laul verelilledest
TTITLE11=Eesti muld ja Eesti süda
EXTD=
EXTT0=
EXTT1=
EXTT2=
EXTT3=
EXTT4=
EXTT5=
EXTT6=
EXTT7=
EXTT8=
EXTT9=
EXTT10=
EXTT11=
PLAYORDER=
